<svg version="1.2" baseProfile="tiny" xmlns="http://www.w3.org/2000/svg" viewBox="0 0 XXX YYY" preserveAspectRatio="xMidYMid meet">
  <g>
    <path d="M109.5,242.43H97.61V147.32h18.3q13.5,39.9,27.07,80h.75q13.43-39.88,26.91-79.93h18c.71,2.6.88,91,.16,95H176.85c-.29-4.34-.11-8.64-.14-12.92,0-4.46,0-8.91,0-13.37v-13c0-4.34,0-8.68,0-13s.11-8.91.14-13.37,0-8.64-.28-13c-4.92,13-9.12,26.17-13.57,39.29s-8.78,26.21-13.2,39.46H136.86l-26.33-78.29a2,2,0,0,0-.54,0,.36.36,0,0,0-.17.24,3.2,3.2,0,0,0-.11.69c0,.35,0,.7,0,1q.06,37.49.13,75a3.33,3.33,0,0,1-.12.69C109.69,241.88,109.64,242,109.5,242.43Z"/>
    <path d="M303.52,242.35V147.2c4.72,0,9.28-.09,13.84.08.79,0,1.77,1,2.29,1.81,2.44,3.73,4.76,7.54,7.12,11.33Q345.4,190.3,364,220.19a8.38,8.38,0,0,0,2.67,2.87V147.43h12.39v95c-2.13.06-4.31.2-6.48.16-2.57,0-5.54.52-7.59-.58s-2.89-3.84-4.21-5.91q-21.15-33.3-42.28-66.61c-.66-1-1.35-2.06-2-3.09l-.68.24v75.69Z"/>
    <path d="M81.47,2.8c1.23-.07,2.26-.18,3.29-.18q20.14,0,40.3,0A50,50,0,0,1,139.4,4.3c12.1,3.58,17.68,12.17,17.49,24.51-.12,7.29-2.08,13.91-8,18.76-1.44,1.18-3,2.21-4.59,3.36a4.32,4.32,0,0,0,.89.7c6.93,2.79,9.4,8.45,9.84,15.32.37,5.73.57,11.47.86,17.21.09,1.64.24,3.27.38,4.9A7.33,7.33,0,0,0,159.52,95c.95.62,1.72,1.29,1,2.74H145.05c-1.51-3.71-1.67-7.58-1.93-11.4-.33-5-.4-10.07-.69-15.1-.49-8.7-5-13.69-13.62-14-11.18-.41-22.38-.12-33.58-.11-.2,0-.4.18-.94.44V97.74c-4.36.33-8.41.09-12.39.16C81.08,95,80.73,12,81.47,2.8ZM94.32,45.49a3.79,3.79,0,0,0,1,.38c11.19,0,22.39.25,33.56-.26,9.83-.45,15.08-6.71,14.83-16.49a22.75,22.75,0,0,0-.67-4.85c-1.43-5.67-5-9.16-10.9-10.1a40.67,40.67,0,0,0-6.33-.55c-9.54-.06-19.08,0-28.63,0a26.7,26.7,0,0,0-2.81.28Z"/>
    <path d="M369.38,340.83c0-14.19,3.29-25.93,11.49-36.06,7-8.66,16.16-13.38,27.16-14.87a59.26,59.26,0,0,1,19.35.48c13.16,2.54,22.55,10.17,28.8,21.77,5.63,10.45,7.34,21.66,6.29,33.38a52.19,52.19,0,0,1-9.94,27.05,40,40,0,0,1-26.69,16.31c-10.21,1.67-20.26,1.14-29.83-3-12.26-5.32-19.48-15.16-23.75-27.39A52.57,52.57,0,0,1,369.38,340.83Zm13.4-.6a45.28,45.28,0,0,0,2.2,14.86c3.52,10.86,12.59,22.84,29.9,23.19,13.62.27,23.92-5.3,29.85-17.41,6.72-13.71,6.6-27.95.3-41.82-4.94-10.88-13.56-17.23-25.75-18.15-12-.9-22,2.87-29.13,13C384.77,321.6,382.68,330.24,382.78,340.23Z"/>
    <path d="M346.46,367.73V292.14h12c.69,2.49.85,90.68.1,95-4.25,0-8.58,0-12.91-.05a2.91,2.91,0,0,1-1.67-1.05,13.76,13.76,0,0,1-1.36-2.05q-22.17-34.93-44.35-69.86a15.72,15.72,0,0,0-2.45-3.1,108.6,108.6,0,0,0-.4,12.47c0,4.22,0,8.44,0,12.66V387H283.32V292.24c2.86-.68,5.83.05,8.67-.38,4.73-.72,7.26,1.32,9.7,5.31,13.82,22.64,28,45.08,42,67.59.66,1.06,1.39,2.08,2.08,3.13Z"/>
    <path d="M199.59,197.71c0-13.9,2.45-24.25,8.59-33.6,6.83-10.39,16.32-16.72,28.68-18.64a59.19,59.19,0,0,1,21.8.48c12.71,2.74,21.72,10.34,27.77,21.55,5.75,10.67,7.39,22.12,6.22,34.08a51.52,51.52,0,0,1-11.39,28.29,39.88,39.88,0,0,1-25.51,14.43,58.17,58.17,0,0,1-21.09-.4c-15-3.1-24.68-12.52-30.67-26.09A52.07,52.07,0,0,1,199.59,197.71ZM213,196.14a45.88,45.88,0,0,0,2.16,14.1c5,16,18.45,25,35,23.35,12.8-1.24,23.36-10.22,27.32-23.28a53,53,0,0,0,1.06-26.43c-1.74-8.38-5.57-15.71-12.28-21.24-6.31-5.2-13.82-6.79-21.85-6.43-9.64.43-17.49,4.25-23.31,12C215.19,176.18,212.94,185.23,213,196.14Z"/>
    <path d="M.41,292.14c.86-.09,1.54-.22,2.23-.22,12.62,0,25.24-.16,37.85.1,16.78.34,28.79,9,34.89,24.51a60.54,60.54,0,0,1,3.7,25.56c-.48,9.48-2.4,18.58-7.32,26.88-6.92,11.67-17.28,17.76-30.78,18.1-12.85.33-25.71.11-38.56.12-.58,0-1.16-.09-1.71-.14C0,384.45-.3,299,.41,292.14ZM13.27,376c9.7,0,19,.15,28.28-.06,5.51-.12,10.21-2.57,14.16-6.36a31,31,0,0,0,8-13.84c2.42-8,2.66-16.15,1.79-24.38a39.53,39.53,0,0,0-3.71-13.49c-4.29-8.7-11.22-14-21-14.52C32,302.8,23,303.09,14.05,303c-.19,0-.39.23-.78.48Z"/>
    <path d="M271.81,292.16c0,3.41,0,6.45,0,9.49a10.71,10.71,0,0,1-.3,1.58H215.22c-.43,9.71-.11,19.14-.2,29.09,4.43.26,8.74.1,13,.12s8.73,0,13.09,0h26v11.36c-8.68.39-17.37.12-26.05.17s-17.14,0-25.91,0V375.7c3.71.24,7.44.09,11.15.11,3.9,0,7.79,0,11.68,0h34.42v10.8c-2.35.71-65.6.94-70.32.2V292.16Z"/>
    <path d="M114.76,356.59h11.36a17.69,17.69,0,0,1,.5,2.31c.67,8.62,5.17,14.56,13.17,17.51a39.35,39.35,0,0,0,28.36-.24c7.88-3,11.1-9.21,9.51-17.44-.71-3.67-2.6-6.67-6.07-8.16a88.69,88.69,0,0,0-12-4.21c-6.94-1.85-14-3.33-21-5-1.72-.41-3.44-.84-5.11-1.4-11.95-4-17.74-13.65-15.69-26s10.24-21,22.65-23.6a53.44,53.44,0,0,1,27.93,1.56c12.56,4.09,19.42,14,19.18,27.71-1.93,0-3.88.06-5.83.07H176c-.19-1-.35-1.74-.47-2.51a17.93,17.93,0,0,0-11.8-14.63,33.16,33.16,0,0,0-22.88-.45c-7.53,2.44-11.24,8.41-10.6,16.28a10,10,0,0,0,6.3,9,39.06,39.06,0,0,0,6.37,2c9.05,2.15,18.14,4.13,27.18,6.34a37,37,0,0,1,7.6,2.76c7.58,3.76,11.67,10.15,12.59,18.34a39.54,39.54,0,0,1-.56,11.17c-1.1,6.16-4.6,11-9.8,14.49a39,39,0,0,1-16,6.25c-8.94,1.41-17.85,1.52-26.66-.85C126.41,385,114,375,114.42,357.76A5.35,5.35,0,0,1,114.76,356.59Z"/>
    <path d="M.4,2.85H69.86v11c-9.47.34-18.85.1-28.23.15s-18.78,0-28.34,0v29.1h52a88.8,88.8,0,0,1,.14,11.56c-8.93,0-17.61,0-26.29,0H13.27V86.47c4.86.11,9.64,0,14.41,0s9.43,0,14.15,0H70.64V97.69H.68C0,95.11-.28,9.69.4,2.85Z"/>
    <path d="M366.64,3.44,347.15,22.18,327.61,41l40.94,56.85c-5.81,0-10.83.11-15.83-.1-.86,0-1.81-1.33-2.45-2.24-6-8.52-12-17.09-18-25.65q-5.76-8.23-11.53-16.45c-.67-1-1.39-1.86-2.24-3-.75.57-1.4,1-2,1.53-3.87,3.61-7.67,7.29-11.6,10.84A5.18,5.18,0,0,0,303,67.09c.08,8.79,0,17.59,0,26.39v4.25c-4.21.32-8.25.17-12.53.11v-95H303c.21,3.63.08,7.35.1,11.05s0,7.51,0,11.26V48.53c1.41-1.28,2.33-2.05,3.18-2.89,13.61-13.51,27.25-27,40.77-40.57a7.62,7.62,0,0,1,6.2-2.51c4.34.19,8.69,0,13,0Z"/>
    <path d="M278.39,30.94c-.82.09-1.49.23-2.17.24-3.29,0-6.58,0-9.91,0l-1-2.91c-2.81-8.51-8.6-13.82-17.36-15.85a34.62,34.62,0,0,0-16.47-.07c-10.19,2.56-16.67,9.26-20.51,18.73a40.25,40.25,0,0,0-2.87,13.35c-.4,8.36-.12,16.65,2.56,24.7,4,12,13,18.9,25.65,19.7,4.15.26,8.25.22,12.21-1.25a25.84,25.84,0,0,0,14.83-13.82c1.59-3.38,2.65-7,4.05-10.78H279.5c-.19,1.29-.31,2.51-.55,3.71-3.31,16.38-12.52,27.76-29,32.09-14.16,3.73-27.68,2-39.35-7.64-7.45-6.13-11.85-14.22-14-23.5-3.18-14-3.43-28,2.22-41.48,6.87-16.38,19.63-25,37.42-26.06,8.1-.47,16.06.48,23.4,4.22,9.83,5,15.89,13,18.39,23.68A25.78,25.78,0,0,1,278.39,30.94Z"/>
    <path d="M.24,242.17V147.4c4.09-.48,8.13-.1,12.59-.23V231H61.27c.83,3.92.21,7.5.43,11C59,242.78,4.47,242.94.24,242.17Z"/>
    <path d="M171,2.77h12.3c.75,2.88.8,91.72.07,94.93H171Z"/>
    <path d="M69,147.28h12c.81,2.51,1.15,88.38.37,95.08H69Z"/>
    <path d="M90.89,292.08H103c.71,2.67,1,86.93.32,95l-6.14.08H91.24C90.48,384.41,90.19,299.31,90.89,292.08Z"/>
    <path d="M338.11,266.21h5.68c1,8.05-6.34,15.37-14.23,14.15a63.36,63.36,0,0,1-7.8-2.11c-2-.6-4-1.36-6.05-1.9-5.85-1.53-7.76-.64-10.55,5-.87.05-1.9.16-2.93.17s-1.84-.12-2.74-.18c-.09-9.92,8.13-16,18.11-13.42,2.72.7,5.33,1.83,8,2.73,1.34.45,2.68.9,4,1.24,3.74.92,6.16-.24,7.73-3.65C337.65,267.59,337.85,266.93,338.11,266.21Z"/>
    <path d="M240.6,138.61,250,119.9h13.51a18.75,18.75,0,0,1-1.27,2.22c-3.73,4.8-7.55,9.54-11.21,14.4a4.58,4.58,0,0,1-4.43,2.12C244.89,138.49,243.13,138.61,240.6,138.61Z"/>
  </g>
</svg>
